<svg xmlns="http://www.w3.org/2000/svg" viewBox="0 0 512 512" width="512" height="512" role="img" aria-label="VOD GROUP">
  <rect width="512" height="512" rx="64" fill="#2a3038"/>
  <path d="M96 128 Q96 112 112 112 L144 112 Q160 112 164 126 L228 352 L292 126 Q296 112 312 112 L344 112 Q360 112 360 128 L360 400 Q360 416 344 416 L312 416 Q296 416 292 402 L256 272 L220 402 Q216 416 200 416 L168 416 Q152 416 152 400 L152 128 Q152 112 168 112 L200 112 Q216 112 220 126 L256 256 L292 126 Q296 112 312 112 L344 112 Q360 112 360 128 L360 400 Q360 416 344 416 L312 416 Q296 416 292 402 L256 272 L220 402 Q216 416 200 416 L168 416 Q152 416 152 400 Z" fill="none"/>
  <!-- V mark (single clean shape) -->
  <path d="M104 112 L160 112 Q170 112 176 122 L256 384 L336 122 Q342 112 352 112 L408 112 Q424 112 424 128 Q424 138 414 152 L284 390 Q272 414 256 414 Q240 414 228 390 L98 152 Q88 138 88 128 Q88 112 104 112 Z" fill="#ffffff"/>
</svg>
